# xmcd
# 
# Track frame offsets:
#     150
#     16009
#     29841
#     45986
#     72476
#     88868
#     110240
#     123564
#     141996
#     151981
#     170579
#     186334
#     201086
#     224719
#     240854
#     256575
#     269366
#     285832
#     300359
#     322440
# 
# Disc length: 4563
# 
# Revision: 0
# Processed by: cddbd v1.5.2PL0 Copyright (c) Steve Scherf et al.
# Submitted via: fre:ac v1.0.31
# 
DISCID=2a11d114
DTITLE=Original Soundtrack - 80's Movies Disc 2
DYEAR=0
DGENRE=Soundtrack
TTITLE0=You Make Loving Fun
TTITLE1=Hot Blooded
TTITLE2=Kokomo
TTITLE3=True Faith
TTITLE4=How Soon Is Now
TTITLE5=Moving In Stereo
TTITLE6=I'm Eighteen
TTITLE7=Dirty Dog
TTITLE8=Blitzkrieg Bop
TTITLE9=Burning Down The House (Live)
TTITLE10=Into The Mystic
TTITLE11=Hurt So Bad
TTITLE12=Power To Believe
TTITLE13=Imagination
TTITLE14=Jungle Love
TTITLE15=Someday Someday
TTITLE16=We're Not Gonna Take It
TTITLE17=Kajagoogoo
TTITLE18=Eligia
TTITLE19=Rachel's Song
EXTD=
EXTT0=
EXTT1=
EXTT2=
EXTT3=
EXTT4=
EXTT5=
EXTT6=
EXTT7=
EXTT8=
EXTT9=
EXTT10=
EXTT11=
EXTT12=
EXTT13=
EXTT14=
EXTT15=
EXTT16=
EXTT17=
EXTT18=
EXTT19=
PLAYORDER=
